# xmcd
#
# Track frame offsets:
#	150
#	18581
#	40272
#	57630
#	74605
#	90467
#	103179
#	118533
#	132972
#	151641
#	166211
#	185993
#	204100
#	218477
#	235503
#	252183
#	269559
#	279681
#	295558
#
# Disc length: 4195 seconds
#
# Revision: 1
# Processed by: cddbd v1.4PL0 Copyright (c) Steve Scherf et al.
# Submitted via: EasyCDDAExtractor 5.0.6
#
DISCID=12106113
DTITLE=Goombay Dance Band - Dance Superhits
DYEAR=1999
DGENRE=Blues
TTITLE0=Rain
TTITLE1=Marrakesh
TTITLE2=Slavery
TTITLE3=Seven Tears
TTITLE4=Child Of The Sun
TTITLE5=Take Me Home To Jamaica
TTITLE6=Jericho
TTITLE7=Island Of Dreams
TTITLE8=Sun Of Jamaica
TTITLE9=Born To Win
TTITLE10=Robinson Crusoe
TTITLE11=Eldorado
TTITLE12=Ave Maria No Morro
TTITLE13=Fly Flamingo
TTITLE14=Aloha-Oe, Until We Meet Again
TTITLE15=My Bonnie
TTITLE16=Reggae Nights
TTITLE17=Little Blue Canary
TTITLE18=Santorini Goodbye
EXTD=
EXTT0=
EXTT1=
EXTT2=
EXTT3=
EXTT4=
EXTT5=
EXTT6=
EXTT7=
EXTT8=
EXTT9=
EXTT10=
EXTT11=
EXTT12=
EXTT13=
EXTT14=
EXTT15=
EXTT16=
EXTT17=
EXTT18=
PLAYORDER=
